HIERARCHY
ROOT Hips
{
	OFFSET -0.001795 -0.223333 0.028219
	CHANNELS 6 Xposition Yposition Zposition Zrotation Yrotation Xrotation 
	JOINT LeftUpLeg
	{
		OFFSET 0.069520 -0.091406 -0.006815
		CHANNELS 3 Zrotation Yrotation Xrotation
		JOINT LeftLeg
		{
			OFFSET 0.034277 -0.375199 -0.004496
			CHANNELS 3 Zrotation Yrotation Xrotation
			JOINT LeftFoot
			{
				OFFSET -0.013596 -0.397961 -0.043693
				CHANNELS 3 Zrotation Yrotation Xrotation
				JOINT LeftToe
				{
					OFFSET 0.026358 -0.055791 0.119288
					CHANNELS 3 Zrotation Yrotation Xrotation
					End Site
					{
						OFFSET 0.000000 0.000000 0.000000
					}
				}
			}
		}
	}
	JOINT RightUpLeg
	{
		OFFSET -0.067670 -0.090522 -0.004320
		CHANNELS 3 Zrotation Yrotation Xrotation
		JOINT RightLeg
		{
			OFFSET -0.038290 -0.382569 -0.008850
			CHANNELS 3 Zrotation Yrotation Xrotation
			JOINT RightFoot
			{
				OFFSET 0.015774 -0.398415 -0.042312
				CHANNELS 3 Zrotation Yrotation Xrotation
				JOINT RightToe
				{
					OFFSET -0.025372 -0.048144 0.123348
					CHANNELS 3 Zrotation Yrotation Xrotation
					End Site
					{
						OFFSET 0.000000 0.000000 0.000000
					}
				}
			}
		}
	}
	JOINT Spine
	{
		OFFSET -0.002533 0.108963 -0.026696
		CHANNELS 3 Zrotation Yrotation Xrotation
		JOINT Spine1
		{
			OFFSET 0.005487 0.135180 0.001092
			CHANNELS 3 Zrotation Yrotation Xrotation
			JOINT Spine2
			{
				OFFSET 0.001457 0.052922 0.025425
				CHANNELS 3 Zrotation Yrotation Xrotation
				JOINT Neck
				{
					OFFSET -0.002778 0.213870 -0.042857
					CHANNELS 3 Zrotation Yrotation Xrotation
					JOINT Head
					{
						OFFSET 0.005152 0.064970 0.051349
						CHANNELS 3 Zrotation Yrotation Xrotation
						End Site
						{
							OFFSET 0.000000 0.000000 0.000000
						}
					}
				}
				JOINT LeftShoulder
				{
					OFFSET 0.078845 0.121749 -0.034090
					CHANNELS 3 Zrotation Yrotation Xrotation
					JOINT LeftArm
					{
						OFFSET 0.090977 0.030469 -0.008868
						CHANNELS 3 Zrotation Yrotation Xrotation
						JOINT LeftForeArm
						{
							OFFSET 0.259612 -0.012772 -0.027456
							CHANNELS 3 Zrotation Yrotation Xrotation
							JOINT LeftHand
							{
								OFFSET 0.249234 0.008986 -0.001171
								CHANNELS 3 Zrotation Yrotation Xrotation
								End Site
								{
									OFFSET 0.000000 0.000000 0.000000
								}
							}
						}
					}
				}
				JOINT RightShoulder
				{
					OFFSET -0.081759 0.118833 -0.038615
					CHANNELS 3 Zrotation Yrotation Xrotation
					JOINT RightArm
					{
						OFFSET -0.096012 0.032551 -0.009143
						CHANNELS 3 Zrotation Yrotation Xrotation
						JOINT RightForeArm
						{
							OFFSET -0.253742 -0.013329 -0.021401
							CHANNELS 3 Zrotation Yrotation Xrotation
							JOINT RightHand
							{
								OFFSET -0.255298 0.007772 -0.005559
								CHANNELS 3 Zrotation Yrotation Xrotation
								End Site
								{
									OFFSET 0.000000 0.000000 0.000000
								}
							}
						}
					}
				}
			}
		}
	}
}
MOTION
Frames: 14
Frame Time: 0.050000
-0.001617 0.977103 -0.003025 0.127081 9.685820 1.796596 7.749814 -0.256590 7.417514 -4.099408 0.282357 -8.765018 2.364235 12.245305 23.983666 0.000000 0.000000 0.000000 -5.290706 0.135552 -1.942838 2.012671 -0.254027 0.098295 5.825468 4.593317 19.124686 0.000000 0.000000 0.000000 2.351635 -0.740916 10.179429 12.737348 -3.177487 -18.389784 -0.010497 -14.111353 26.754970 -14.970638 9.124327 -24.879505 0.000000 0.000000 0.000000 -24.853838 -28.578160 18.617123 -79.137783 -54.188278 33.116272 33.165653 -85.396219 -19.756487 0.000000 0.000000 0.000000 17.075041 27.033248 11.067924 54.980841 30.436145 6.754392 -34.993660 20.917956 -5.183563 0.000000 0.000000 0.000000 
-0.001439 0.977071 -0.003428 0.107439 9.506797 1.707502 7.813529 -0.256500 7.478900 -4.062748 0.286116 -8.705133 2.142773 11.973120 24.081904 0.000000 0.000000 0.000000 -5.237924 0.133942 -1.878781 2.020316 -0.253426 0.144411 5.719334 4.467271 18.907106 0.000000 0.000000 0.000000 2.375054 -0.734775 10.100121 12.825436 -3.238413 -18.187905 0.057697 -13.893534 26.658372 -14.894444 9.094431 -24.859778 0.000000 0.000000 0.000000 -24.953587 -28.363892 18.491155 -78.716144 -53.457862 32.126810 28.199490 -86.196395 -15.361002 0.000000 0.000000 0.000000 17.140887 26.834925 10.994062 55.270126 30.402840 6.801503 -34.908736 21.340978 -5.280951 0.000000 0.000000 0.000000 
-0.001245 0.977052 -0.003996 0.136027 9.378787 1.632632 7.809660 -0.250362 7.480759 -3.964215 0.289840 -8.549246 1.830815 11.577884 24.073785 0.000000 0.000000 0.000000 -5.278122 0.132878 -1.863507 2.009978 -0.250430 0.206749 5.740210 4.510175 18.827446 0.000000 0.000000 0.000000 2.378309 -0.730429 10.065517 12.914168 -3.267585 -18.207041 0.043949 -13.763586 26.741099 -14.703115 8.979136 -24.922519 0.000000 0.000000 0.000000 -24.978718 -28.114160 18.332349 -78.285022 -52.586583 31.012341 15.955807 -87.521768 -3.934853 0.000000 0.000000 0.000000 17.269136 26.671962 10.938160 55.576365 30.296769 6.803342 -34.896456 21.921268 -5.436142 0.000000 0.000000 0.000000 
-0.000954 0.977147 -0.004801 0.168845 9.103340 1.567546 7.740789 -0.232111 7.608003 -3.935332 0.293985 -8.550109 1.770100 11.450601 23.995106 0.000000 0.000000 0.000000 -5.293860 0.136108 -1.882723 1.964290 -0.242238 0.264544 5.756785 4.527402 18.727850 0.000000 0.000000 0.000000 2.401621 -0.719283 9.936038 12.854474 -3.277257 -18.025624 0.122385 -13.588697 26.766126 -14.594474 8.930930 -24.800644 0.000000 0.000000 0.000000 -24.941941 -27.850145 18.166343 -77.998631 -51.931391 30.211504 -5.627565 -88.240821 17.012496 0.000000 0.000000 0.000000 17.185830 26.520704 10.845444 56.015076 30.123221 6.792386 -34.854200 22.509068 -5.594951 0.000000 0.000000 0.000000 
-0.000562 0.977101 -0.005818 0.237937 8.908096 1.465249 7.576729 -0.204969 7.622127 -3.860250 0.298092 -8.438454 1.837485 11.525652 24.070142 0.000000 0.000000 0.000000 -5.402366 0.132662 -1.836356 1.996822 -0.243716 0.369423 5.729771 4.566445 18.430100 0.000000 0.000000 0.000000 2.464977 -0.728375 10.004343 12.883486 -3.294889 -17.998521 0.066562 -13.438782 26.796257 -14.522217 8.883301 -24.875002 0.000000 0.000000 0.000000 -24.981680 -27.661355 18.056471 -77.656529 -51.377993 29.479682 -48.778550 -88.530375 59.432737 0.000000 0.000000 0.000000 17.029852 26.548379 10.844747 56.373293 30.223439 6.901534 -34.792848 22.976705 -5.712052 0.000000 0.000000 0.000000 
-0.000150 0.977219 -0.006908 0.253534 8.586029 1.382500 7.473834 -0.181295 7.745057 -3.738688 0.300938 -8.480619 1.773182 11.419431 24.147820 0.000000 0.000000 0.000000 -5.538955 0.138373 -1.925560 2.044961 -0.246991 0.452334 5.995895 4.897331 18.581625 0.000000 0.000000 0.000000 2.562048 -0.744398 10.121063 12.875553 -3.301361 -17.968552 0.162262 -13.257519 26.817487 -14.556731 8.902975 -24.905608 0.000000 0.000000 0.000000 -25.135351 -27.460377 18.002515 -77.718617 -51.069809 29.204941 -71.825139 -87.936114 81.770632 0.000000 0.000000 0.000000 16.746047 26.600814 10.828720 56.617813 30.286411 6.958978 -34.520967 23.169945 -5.713690 0.000000 0.000000 0.000000 
0.000201 0.977222 -0.007921 0.279127 8.575310 1.281891 7.398331 -0.169923 7.874614 -3.670927 0.299081 -8.604141 1.693966 11.324894 24.161900 0.000000 0.000000 0.000000 -5.595786 0.131786 -1.845450 2.030735 -0.244081 0.513821 5.990931 4.976661 18.369320 0.000000 0.000000 0.000000 2.664832 -0.765351 10.263269 12.945246 -3.330299 -17.935516 0.116706 -13.167508 26.747665 -14.588506 8.954886 -24.730204 0.000000 0.000000 0.000000 -25.053260 -27.397618 17.908339 -78.228711 -51.004766 29.462629 -78.673125 -87.471359 88.125272 0.000000 0.000000 0.000000 16.527397 26.649868 10.843432 56.778404 30.493080 7.090497 -34.552311 22.924730 -5.640670 0.000000 0.000000 0.000000 
0.000441 0.977269 -0.008803 0.237851 8.444637 1.233787 7.290005 -0.152275 8.028266 -3.558948 0.297886 -8.773950 1.869257 11.495184 24.036032 0.000000 0.000000 0.000000 -5.603274 0.130898 -1.806943 2.056022 -0.246304 0.538375 6.044785 5.146697 18.137694 0.000000 0.000000 0.000000 2.737520 -0.774915 10.301728 13.087237 -3.378560 -17.935434 0.069956 -13.122957 26.803905 -14.586862 8.935016 -24.873278 0.000000 0.000000 0.000000 -24.954048 -27.358202 17.863931 -78.923711 -51.226823 30.096164 -76.063031 -87.319165 85.411011 0.000000 0.000000 0.000000 16.349789 26.801731 10.889813 57.004016 30.550508 7.147669 -34.588915 22.711968 -5.583721 0.000000 0.000000 0.000000 
0.000584 0.977232 -0.009597 0.235369 8.420950 1.254544 7.205095 -0.142042 8.056117 -3.469670 0.295922 -8.908012 1.917228 11.538166 23.976030 0.000000 0.000000 0.000000 -5.650580 0.132305 -1.834576 2.067328 -0.247925 0.519475 6.109622 5.294459 18.047465 0.000000 0.000000 0.000000 2.799219 -0.784612 10.339973 13.098800 -3.376675 -17.970590 0.105213 -13.143033 26.844578 -14.594752 8.921470 -24.978110 0.000000 0.000000 0.000000 -24.894450 -27.487767 17.941962 -79.844948 -51.650250 31.071069 -69.105063 -87.214114 78.435545 0.000000 0.000000 0.000000 16.048814 26.733999 10.808903 57.265648 30.415215 7.102697 -34.649184 22.872377 -5.641543 0.000000 0.000000 0.000000 
0.000661 0.977348 -0.010339 0.221272 8.371982 1.302537 7.196587 -0.140299 8.089387 -3.377039 0.294608 -9.025972 1.738556 11.286095 23.847018 0.000000 0.000000 0.000000 -5.773620 0.138032 -1.954848 2.124755 -0.254023 0.587869 6.368136 5.726813 18.068957 0.000000 0.000000 0.000000 2.736951 -0.776955 10.325015 13.341351 -3.451149 -17.996612 -0.082186 -13.234842 26.932190 -14.666954 8.913043 -25.299502 0.000000 0.000000 0.000000 -24.731877 -27.556173 17.964916 -80.621057 -52.363451 32.261768 -52.566766 -87.320524 62.270881 0.000000 0.000000 0.000000 15.904918 26.997837 10.898077 57.276342 30.353975 7.058360 -35.023573 22.683256 -5.666971 0.000000 0.000000 0.000000 
0.000625 0.977487 -0.011057 0.229884 8.453348 1.408841 7.147084 -0.139020 8.090136 -3.357477 0.291876 -9.167692 1.723901 11.209883 23.522794 0.000000 0.000000 0.000000 -5.790546 0.145564 -2.096334 2.123349 -0.251752 0.740240 6.304216 5.764415 17.772652 0.000000 0.000000 0.000000 2.739928 -0.776961 10.298510 13.452980 -3.476054 -18.049241 -0.163078 -13.415916 27.023055 -14.809455 8.970942 -25.397721 0.000000 0.000000 0.000000 -24.569045 -27.646966 18.010813 -81.538037 -52.928735 33.424867 -39.394583 -87.305049 49.478541 0.000000 0.000000 0.000000 15.716050 26.992072 10.844134 57.418946 30.099688 6.926941 -35.274499 22.857390 -5.775093 0.000000 0.000000 0.000000 
0.000537 0.977621 -0.011759 0.181115 8.360100 1.472637 7.133610 -0.135342 8.164138 -3.232653 0.290358 -9.384953 1.654267 11.091814 23.432466 0.000000 0.000000 0.000000 -5.765182 0.150945 -2.148500 2.107239 -0.250354 0.663318 6.418157 5.969119 17.731344 0.000000 0.000000 0.000000 2.719601 -0.764451 10.170256 13.620826 -3.551174 -17.910828 -0.304505 -13.417957 27.125713 -14.957022 9.021641 -25.684792 0.000000 0.000000 0.000000 -24.261387 -27.796123 18.011221 -82.363496 -53.606012 34.671412 -20.881559 -87.077305 31.484289 0.000000 0.000000 0.000000 15.687761 27.134800 10.902116 57.305536 30.138822 6.915258 -35.638505 22.556313 -5.758497 0.000000 0.000000 0.000000 
0.000385 0.977613 -0.012432 0.134944 8.529536 1.578924 7.217543 -0.152469 8.159788 -3.224012 0.286021 -9.575175 1.472052 10.824968 23.146355 0.000000 0.000000 0.000000 -5.697358 0.153440 -2.184344 2.044472 -0.244805 0.549032 6.404561 6.014417 17.654358 0.000000 0.000000 0.000000 2.716797 -0.759658 10.080104 13.706405 -3.581454 -17.866795 -0.428300 -13.616148 27.138915 -15.086138 9.054712 -25.914556 0.000000 0.000000 0.000000 -24.090742 -27.935726 18.072825 -82.843204 -54.212833 35.629332 -5.526546 -86.706841 16.730978 0.000000 0.000000 0.000000 15.582695 27.201117 10.903282 57.163178 30.101802 6.860695 -36.031241 22.331063 -5.777060 0.000000 0.000000 0.000000 
0.000251 0.977554 -0.013061 0.049411 8.467652 1.641888 7.364965 -0.168724 8.216741 -3.290254 0.285585 -9.731367 1.381189 10.649391 22.916756 0.000000 0.000000 0.000000 -5.727704 0.155198 -2.192012 2.050302 -0.248247 0.370502 6.742040 6.568938 17.719702 0.000000 0.000000 0.000000 2.726492 -0.753982 9.989682 13.739678 -3.611816 -17.734416 -0.565188 -13.522292 27.096389 -15.104374 9.048304 -26.102923 0.000000 0.000000 0.000000 -23.989415 -28.034172 18.078058 -83.112553 -54.583791 36.201397 2.937471 -86.322285 8.618358 0.000000 0.000000 0.000000 15.694614 27.304356 10.983163 56.867515 30.145619 6.846872 -36.424249 21.991368 -5.746993 0.000000 0.000000 0.000000 
